# xmcd
# 
# Track frame offsets:
#     150
#     12152
#     24522
#     37672
#     50722
#     64382
#     78827
#     89737
#     101455
#     114740
#     124085
#     137462
#     149195
#     165142
#     179435
# 
# Disc length: 2534
# 
# Revision: 0
# Processed by: cddbd v1.5.2PL0 Copyright (c) Steve Scherf et al.
# Submitted via: fre:ac v1.0.31
# 
DISCID=c709e40f
DTITLE=Various Artist - Que me siga la Tambora
DYEAR=0
DGENRE=Folklore
TTITLE0=Charro Avitia - El Sinaloense
TTITLE1=El Auténtico Tamborazo Zacatecano - El Baile Mexicapan
TTITLE2=Charro Avitia - Mi Gusto Es
TTITLE3=Enrique Samaniego - Benjamín Argumedo
TTITLE4=Charro Avitia - El Golpe Traidor
TTITLE5=Enrique Samaniego - Corrido de Durango
TTITLE6=Charro Avitia - De que Manera te Olvido
TTITLE7=Banda El Roble de Sinaloa - Adiós mi Chaparrita
TTITLE8=Charro Avitia - Sonora Querida
TTITLE9=Banda El Roble de Sinaloa - El Abandonado
TTITLE10=Charro Avitia - Los Laureles
TTITLE11=Banda del Recodo - Cuando Llora un Prisionero
TTITLE12=Charro Avitia - Besando la Cruz
TTITLE13=banda Regional El Bajío - Las Tecualeñas
TTITLE14=Charro Avitia - La Piedra
EXTD=
EXTT0=
EXTT1=
EXTT2=
EXTT3=
EXTT4=
EXTT5=
EXTT6=
EXTT7=
EXTT8=
EXTT9=
EXTT10=
EXTT11=
EXTT12=
EXTT13=
EXTT14=
PLAYORDER=
